<?xml version="1.0"?>
<svg xmlns="http://www.w3.org/2000/svg" id="Solid" viewBox="0 0 512 512" width="512" height="512"><path d="M344,448a7.974,7.974,0,0,1-5.482-2.175L216,330.515V480H472V330.515L349.482,445.825A7.974,7.974,0,0,1,344,448Z"/><polygon points="344 429.014 459.828 320 228.172 320 344 429.014"/><path d="M376,232a8,8,0,0,1,8,8v6.606L419.707,216,384,185.394V192a8,8,0,0,1-8,8c-47.838,0-96.453,21.014-108.935,44.586C286.428,239.729,325.221,232,376,232Z"/><circle cx="176" cy="96" r="64"/><path d="M200,366.748V312a8,8,0,0,1,8-8H309.622a177.4,177.4,0,0,0-14.657-48.963c-1.414.252-2.793.5-4.1.751-20.346,3.857-32.223,7.764-32.342,7.8A8,8,0,0,1,248,256c0-13.815,7.592-27.092,21.777-38.655C245.071,190.632,212.021,176,176,176c-36.9,0-70.938,15.487-95.834,43.609-24.99,28.23-39.148,67.706-40.113,111.581C56.2,339.412,116.617,368,176,368A237.291,237.291,0,0,0,200,366.748Z"/></svg>
