<?xml version="1.0" standalone="no"?>
<svg viewBox="0 0 200 200" xmlns="http://www.w3.org/2000/svg">
  <path fill="#FF0066" d="M40.8,-64.1C49.9,-65.4,52.4,-48.5,52.6,-34.8C52.7,-21.1,50.6,-10.6,54.9,2.5C59.1,15.5,69.8,31,65.9,38.2C61.9,45.3,43.4,44.2,30,48.2C16.6,52.2,8.3,61.4,-4.1,68.5C-16.5,75.7,-33.1,80.8,-39.8,73C-46.6,65.1,-43.5,44.2,-46.6,29.9C-49.7,15.6,-59,7.8,-55.7,1.9C-52.4,-4,-36.5,-7.9,-30.7,-17.7C-25,-27.4,-29.4,-42.9,-25.9,-44.9C-22.5,-46.8,-11.2,-35.2,2.3,-39.2C15.8,-43.2,31.7,-62.7,40.8,-64.1Z" transform="translate(100 100)" />
</svg>
