<?xml version="1.0" standalone="no"?><svg xmlns="http://www.w3.org/2000/svg" viewBox="0 0 1440 320"><path fill="rgb(255, 27, 103)" fill-opacity="1" d="M0,128L10.9,122.7C21.8,117,44,107,65,101.3C87.3,96,109,96,131,128C152.7,160,175,224,196,218.7C218.2,213,240,139,262,122.7C283.6,107,305,149,327,160C349.1,171,371,149,393,133.3C414.5,117,436,107,458,90.7C480,75,502,53,524,53.3C545.5,53,567,75,589,96C610.9,117,633,139,655,149.3C676.4,160,698,160,720,138.7C741.8,117,764,75,785,101.3C807.3,128,829,224,851,240C872.7,256,895,192,916,192C938.2,192,960,256,982,250.7C1003.6,245,1025,171,1047,149.3C1069.1,128,1091,160,1113,176C1134.5,192,1156,192,1178,176C1200,160,1222,128,1244,144C1265.5,160,1287,224,1309,240C1330.9,256,1353,224,1375,218.7C1396.4,213,1418,235,1429,245.3L1440,256L1440,320L1429.1,320C1418.2,320,1396,320,1375,320C1352.7,320,1331,320,1309,320C1287.3,320,1265,320,1244,320C1221.8,320,1200,320,1178,320C1156.4,320,1135,320,1113,320C1090.9,320,1069,320,1047,320C1025.5,320,1004,320,982,320C960,320,938,320,916,320C894.5,320,873,320,851,320C829.1,320,807,320,785,320C763.6,320,742,320,720,320C698.2,320,676,320,655,320C632.7,320,611,320,589,320C567.3,320,545,320,524,320C501.8,320,480,320,458,320C436.4,320,415,320,393,320C370.9,320,349,320,327,320C305.5,320,284,320,262,320C240,320,218,320,196,320C174.5,320,153,320,131,320C109.1,320,87,320,65,320C43.6,320,22,320,11,320L0,320Z"></path></svg>