<?xml version="1.0" standalone="no"?><svg xmlns="http://www.w3.org/2000/svg" viewBox="0 0 1440 320"><path fill="rgb(255, 27, 103)" fill-opacity="1" d="M0,192L40,192C80,192,160,192,240,176C320,160,400,128,480,133.3C560,139,640,181,720,170.7C800,160,880,96,960,106.7C1040,117,1120,203,1200,218.7C1280,235,1360,181,1400,154.7L1440,128L1440,320L1400,320C1360,320,1280,320,1200,320C1120,320,1040,320,960,320C880,320,800,320,720,320C640,320,560,320,480,320C400,320,320,320,240,320C160,320,80,320,40,320L0,320Z"></path></svg>