<?xml version="1.0" standalone="no"?><svg xmlns="http://www.w3.org/2000/svg" viewBox="0 0 1440 320"><path fill="#ffbb00" fill-opacity="1" d="M0,64L26.7,69.3C53.3,75,107,85,160,122.7C213.3,160,267,224,320,240C373.3,256,427,224,480,224C533.3,224,587,256,640,256C693.3,256,747,224,800,229.3C853.3,235,907,277,960,282.7C1013.3,288,1067,256,1120,245.3C1173.3,235,1227,245,1280,224C1333.3,203,1387,149,1413,122.7L1440,96L1440,320L1413.3,320C1386.7,320,1333,320,1280,320C1226.7,320,1173,320,1120,320C1066.7,320,1013,320,960,320C906.7,320,853,320,800,320C746.7,320,693,320,640,320C586.7,320,533,320,480,320C426.7,320,373,320,320,320C266.7,320,213,320,160,320C106.7,320,53,320,27,320L0,320Z"></path></svg>