<svg id="Capa_1" enable-background="new 0 0 511.755 511.755" height="512" viewBox="0 0 511.755 511.755" width="512" xmlns="http://www.w3.org/2000/svg"><path d="m478.495 125.92h-41.214c-26.113-46.609-69.532-81.744-120.339-97.416v-11.004c0-9.649-7.851-17.5-17.5-17.5h-87.128c-9.649 0-17.5 7.851-17.5 17.5v11.007c-20.009 6.163-38.924 15.305-56.293 27.238-3.414 2.346-4.28 7.015-1.935 10.429 2.36 3.439 7.056 4.263 10.429 1.935 14.829-10.188 30.872-18.181 47.799-23.846-.079 5.207.644 10.368 2.097 15.138-35.121 12.393-65.712 35.723-87.111 66.52h-17.92c8.188-13.222 17.939-25.423 29.109-36.378 2.957-2.9 3.003-7.649.103-10.606-2.901-2.957-7.649-3.003-10.606-.103-14.224 13.952-26.323 29.776-36.016 47.087h-41.21c-9.649 0-17.5 7.851-17.5 17.5v27.702c0 21.291 13.596 39.461 32.56 46.299-.152 3.264-.238 6.541-.238 9.802 0 37.332 9.942 73.606 28.827 105.536-4.577 3.16-7.586 8.435-7.586 14.405v27.702c0 27.13 22.072 49.202 49.202 49.202h18.757l-18.657 37.687h-11.705c-15.163 0-27.5 12.337-27.5 27.5v5c0 9.649 7.851 17.5 17.5 17.5h312c9.649 0 17.5-7.851 17.5-17.5v-5c0-15.163-12.337-27.5-27.5-27.5h-5.791l-18.657-37.687h18.757c27.13 0 49.202-22.072 49.202-49.202v-27.702c0-5.97-3.009-11.245-7.586-14.405 18.885-31.93 28.828-68.203 28.828-105.536 0-3.26-.086-6.538-.238-9.802 18.963-6.838 32.559-25.008 32.559-46.299v-27.703c.001-9.649-7.85-17.5-17.499-17.5zm-58.632 0h-17.907c-21.399-30.797-51.99-54.127-87.111-66.52 1.454-4.771 2.177-9.935 2.097-15.144 42.56 14.278 79.184 43.375 102.921 81.664zm-117.404 95.129c-.671-5.087-2.148-9.922-4.316-14.365l77.268-23.31c1.278 4.967 3.323 9.626 5.986 13.861zm-46.582 214.056c19.9 0 39.305-2.754 58.01-8.214l17.568 34.863h-151.155l17.568-34.863c18.705 5.46 38.11 8.214 58.009 8.214zm59.946-24.532c-19.225 6.356-39.299 9.523-59.945 9.532-26.02.003-51.104-5.073-74.779-15.1 3.083-3.964 5.583-8.403 7.347-13.198 21.39 8.82 44.031 13.298 67.432 13.298 23.409 0 46.049-4.475 67.434-13.294 1.764 4.793 4.263 9.231 7.345 13.194-4.884 2.069-9.831 3.922-14.834 5.568zm-135.251-116.938c-3.173-2.664-7.903-2.254-10.567.919l-29.493 35.11h-11.107c-23.447-28.935-36.322-65.173-36.322-102.441 0-2.368.054-4.746.156-7.117 9.822-.906 18.811-4.711 26.113-10.549l90.525 27.309c.543 2.595 1.31 5.108 2.263 7.527l-19.592 23.324c-2.664 3.172-2.253 7.902.919 10.567 3.155 2.653 7.892 2.264 10.567-.919l16.317-19.424c3.284 3.792 7.157 7.059 11.484 9.646l-52.785 62.839c-1.614-.493-3.325-.762-5.098-.762h-13.849l21.388-25.462c2.664-3.172 2.252-7.902-.919-10.567zm-44.223-110.285 77.274 23.312c-2.17 4.442-3.651 9.276-4.324 14.362l-78.928-23.81c2.661-4.236 4.703-8.897 5.978-13.864zm112.071-88.946h15v86.432c-4.862-.807-10.135-.813-15-.015zm-4.602 103.186c7.41-3.15 16.852-3.127 24.246.05 11.616 4.803 19.813 16.252 19.813 29.583 0 5.403-1.351 10.494-3.725 14.963-.017.033-.034.065-.05.098-5.396 10.071-16.022 16.94-28.224 16.94-12.24 0-22.893-6.912-28.273-17.034-.001-.002-.003-.005-.004-.007-2.373-4.467-3.723-9.557-3.723-14.958-.001-13.381 8.257-24.863 19.94-29.635zm76.534 179.187c-20.375 8.842-42.037 13.328-64.474 13.328-22.43 0-44.096-4.482-64.474-13.323.024-.637.049-1.274.049-1.917v-27.702c0-2.343-.471-4.576-1.31-6.62l56.482-67.24c5.914 1.213 12.478 1.22 18.397.02l56.416 67.699c-.721 1.915-1.134 3.979-1.134 6.142v27.702c-.001.641.023 1.276.048 1.911zm17.451-47.113c-1.938 0-3.798.33-5.542.914l-52.443-62.932c4.335-2.577 8.218-5.833 11.51-9.617l59.696 71.635zm36.064-186.244v24.752l-84.977 25.635c-3.1-3.063-6.621-5.7-10.469-7.813v-92.771c12.334-2.742 22.938-10.119 29.88-20.212 30.04 10.256 56.55 29.23 76.101 54.363-6.192 2.699-10.535 8.872-10.535 16.046zm-164.053-125.92c0-1.379 1.121-2.5 2.5-2.5h87.128c1.379 0 2.5 1.121 2.5 2.5v27.702c0 18.859-15.343 34.202-34.202 34.202h-23.724c-18.859 0-34.202-15.343-34.202-34.202zm-6.358 55.512c6.957 10.115 17.594 17.504 29.965 20.231v92.703c-3.874 2.116-7.416 4.765-10.534 7.842l-84.998-25.642v-24.726c0-7.174-4.343-13.346-10.534-16.045 19.55-25.134 46.06-44.108 76.101-54.363zm-172.696 98.11v-27.702c0-1.379 1.121-2.5 2.5-2.5h87.128c1.379 0 2.5 1.121 2.5 2.5-.047 1.908.094 28.252-.06 29.659-1.018 17.952-15.94 32.245-34.142 32.245h-23.724c-18.859 0-34.202-15.343-34.202-34.202zm32.45 49.158c.628.082 13.971.031 15.011.044-.088 2.3-.138 4.604-.138 6.898 0 36.744 11.458 72.572 32.523 102.441h-18.02c-19.313-30.698-29.503-66.026-29.503-102.441 0-2.308.045-4.627.127-6.942zm21.114 154.586v-27.702c0-1.379 1.121-2.5 2.5-2.5h1.658c.005 0 .011.001.016.001s.009-.001.014-.001h37.351c.006 0 .012.001.018.001.008 0 .015-.001.023-.001h48.048c1.379 0 2.5 1.121 2.5 2.5v27.702c.011 18.919-15.488 34.23-34.202 34.202h-23.724c-18.859 0-34.202-15.342-34.202-34.202zm70.507 47.565c5.125-1.357 9.92-3.526 14.25-6.355 4.748 2.195 9.554 4.196 14.411 6.013l-19.988 39.665h-28.14zm256.589 66.824v5c0 1.379-1.121 2.5-2.5 2.5h-312c-1.379 0-2.5-1.121-2.5-2.5v-5c0-6.893 5.607-12.5 12.5-12.5h292c6.893 0 12.5 5.607 12.5 12.5zm-63.169-27.5-19.988-39.665c4.857-1.817 9.663-3.818 14.411-6.013 4.329 2.828 9.125 4.998 14.25 6.355l19.468 39.323zm79.18-86.889c0 18.859-15.343 34.202-34.202 34.202h-23.724c-18.714.028-34.214-15.284-34.202-34.202v-27.702c.003-1.374 1.122-2.501 2.5-2.5h48.048 39.08c1.379 0 2.5 1.121 2.5 2.5zm21.242-147.643c0 36.416-10.191 71.745-29.505 102.441h-18.038c6.231-8.818 11.669-18.167 16.198-27.958 1.739-3.76.102-8.217-3.657-9.956-3.76-1.74-8.217-.101-9.956 3.657-5.664 12.243-12.863 23.743-21.389 34.257h-11.776l-70.975-85.17c.969-2.442 1.746-4.979 2.297-7.6l90.555-27.319c7.298 5.828 16.279 9.626 26.091 10.53.102 2.371.156 4.749.156 7.117 0 12.332-1.389 24.625-4.129 36.538-.928 4.036 1.592 8.062 5.629 8.99 3.931.937 8.078-1.562 8.99-5.629 2.992-13.014 4.51-26.438 4.51-39.899 0-2.295-.05-4.599-.138-6.898 1.084-.013 14.349.038 15.011-.044.081 2.315.126 4.634.126 6.943zm32.322-56.101c0 18.859-15.343 34.202-34.202 34.202h-23.724c-18.184 0-33.093-14.265-34.138-32.192-.046-.667-.062-1.335-.064-2.01v-27.702c0-1.379 1.121-2.5 2.5-2.5h41.466c.005 0 .01.001.015.001s.011-.001.016-.001h45.631c1.379 0 2.5 1.121 2.5 2.5z"/></svg>