<svg id="Layer_1" enable-background="new 0 0 510 510" height="512" viewBox="0 0 510 510" width="512" xmlns="http://www.w3.org/2000/svg"><g id="XMLID_76_"><path id="XMLID_82_" d="m127.5 435c-24.813 0-45 20.186-45 45v21.792c14.001 5.299 29.166 8.208 45 8.208s30.999-2.91 45-8.208v-21.792c0-24.814-20.186-45-45-45z"/><path id="XMLID_117_" d="m127.5 255c-70.304 0-127.5 57.196-127.5 127.5 0 42.291 20.703 79.832 52.5 103.04v-5.54c0-26.692 14.027-50.157 35.087-63.451-7.839-9.175-12.587-21.065-12.587-34.049 0-28.948 23.551-52.5 52.5-52.5s52.5 23.552 52.5 52.5c0 12.984-4.748 24.874-12.587 34.049 21.06 13.294 35.087 36.759 35.087 63.451v5.54c31.797-23.208 52.5-60.749 52.5-103.04 0-70.304-57.196-127.5-127.5-127.5z"/><circle id="XMLID_118_" cx="127.5" cy="382.5" r="22.5"/><path id="XMLID_120_" d="m337.5 225v21.792c14.001 5.299 29.166 8.208 45 8.208s30.999-2.91 45-8.208v-21.792c0-24.813-20.186-45-45-45-24.812 0-45 20.187-45 45z"/><circle id="XMLID_135_" cx="382.5" cy="127.5" r="22.5"/><path id="XMLID_136_" d="m307.5 230.54v-5.54c0-26.692 14.027-50.156 35.087-63.451-7.839-9.175-12.587-21.065-12.587-34.049 0-28.949 23.551-52.5 52.5-52.5s52.5 23.551 52.5 52.5c0 12.984-4.748 24.874-12.587 34.049 21.06 13.295 35.087 36.759 35.087 63.451v5.54c31.797-23.208 52.5-60.749 52.5-103.04 0-70.304-57.196-127.5-127.5-127.5s-127.5 57.196-127.5 127.5c0 42.291 20.703 79.832 52.5 103.04z"/><path id="XMLID_137_" d="m396.967 334.394 21.213 21.212 16.82-16.82v111.214h-165v30h195v-141.214l16.82 16.82 21.213-21.212-53.033-53.034z"/><path id="XMLID_229_" d="m113.033 178.18-21.214-21.213-16.819 16.82v-111.213h165v-30h-195v141.213l-16.82-16.82-21.213 21.213 53.033 53.033z"/></g></svg>