<svg id="Layer_1" enable-background="new 0 0 510 510" height="512" viewBox="0 0 510 510" width="512" xmlns="http://www.w3.org/2000/svg"><g id="XMLID_4594_"><path id="XMLID_4609_" d="m268.922 330h-250.056l-16.875 135h230.849c5.404-20.605 16.234-39.037 30.871-53.664-10.968-25.731-9.644-56.026 5.211-81.336z"/><path id="XMLID_4610_" d="m425.709 330c14.851 25.303 16.183 55.599 5.212 81.336 14.637 14.627 25.467 33.059 30.871 53.664h24.183l-16.875-135z"/><path id="XMLID_4611_" d="m390.913 418.198c10.656-10.962 17.237-25.906 17.237-42.365 0-33.543-27.29-60.833-60.834-60.833-33.543 0-60.833 27.29-60.833 60.833 0 16.459 6.581 31.403 17.236 42.365-26.696 15.214-44.736 43.938-44.736 76.802v15h176.667v-15c-.001-32.863-18.042-61.588-44.737-76.802z"/><path id="XMLID_4639_" d="m344.982 255c33.242 0 62.322-18.121 77.906-45h-17.906c-63.56 0-115.728-49.674-119.742-112.237-33.384 29.774-39.855 78.907-15.842 116.071l-27.444 41.166z"/><path id="XMLID_4647_" d="m404.982 180h103.027l-27.443-41.166c9.356-14.48 14.416-31.451 14.416-48.834 0-49.626-40.374-90-90-90-49.681 0-90 40.444-90 90 0 49.626 40.374 90 90 90z"/><path id="XMLID_4648_" d="m184.238 253.207c10.66-10.964 17.245-25.91 17.245-42.373 0-33.544-27.29-60.834-60.833-60.834-33.544 0-60.833 27.29-60.833 60.834 0 16.463 6.584 31.409 17.244 42.373-18.143 10.34-32.292 26.912-39.493 46.793h166.161c-7.2-19.881-21.349-36.453-39.491-46.793z"/></g></svg>