<?xml version="1.0" encoding="iso-8859-1"?>
<!-- Generator: Adobe Illustrator 16.0.0, SVG Export Plug-In . SVG Version: 6.00 Build 0)  -->
<!DOCTYPE svg PUBLIC "-//W3C//DTD SVG 1.1//EN" "http://www.w3.org/Graphics/SVG/1.1/DTD/svg11.dtd">
<svg version="1.1" id="Capa_1" xmlns="http://www.w3.org/2000/svg" xmlns:xlink="http://www.w3.org/1999/xlink" x="0px" y="0px"
	 width="612px" height="612px" viewBox="0 0 612 612" style="enable-background:new 0 0 612 612;" xml:space="preserve">
<g>
	<g>
		<path d="M150.385,495.036C253.225,491.866,656.146,450.81,602.289,0c-64.365,101.405-162.62,95.353-266.34,140.354
			c-19.005,31.929-50.418,80.942-86.985,123.136c0,0,17.681-48.008,28.769-91.723c-26.737,17.729-53.488,40.679-79.78,71.542
			c-64.91,76.204-72.111,183.055-71.91,229.161L4.781,612h43.031L150.385,495.036z M539.153,131.169
			C470.963,254.052,304.967,300.334,165.006,433.1l-0.096-0.091C293.932,267.946,438.642,244.833,539.153,131.169z"/>
	</g>
</g>
<g>
</g>
<g>
</g>
<g>
</g>
<g>
</g>
<g>
</g>
<g>
</g>
<g>
</g>
<g>
</g>
<g>
</g>
<g>
</g>
<g>
</g>
<g>
</g>
<g>
</g>
<g>
</g>
<g>
</g>
</svg>
