<svg id="Capa_1" enable-background="new 0 0 512 512" height="512" viewBox="0 0 512 512" width="512" xmlns="http://www.w3.org/2000/svg"><g><path d="m256 67.433c4.339-2.451 8.68-4.726 12.93-6.954 11.502-6.029 22.198-11.644 31.24-19.763-2.584-2.348-5.173-4.549-7.658-6.657-13.739-11.659-21.512-18.989-21.512-34.059h-30c0 15.07-7.773 22.4-21.512 34.059-2.484 2.108-5.074 4.309-7.658 6.657 9.042 8.118 19.738 13.734 31.24 19.763 4.25 2.228 8.591 4.503 12.93 6.954z"/><path d="m256 444.567c-4.34 2.451-8.68 4.726-12.932 6.954-11.501 6.029-22.197 11.644-31.239 19.762 2.584 2.348 5.174 4.55 7.658 6.658 13.74 11.659 21.513 18.989 21.513 34.059h30c0-15.07 7.773-22.4 21.512-34.059 2.485-2.108 5.074-4.31 7.658-6.658-9.042-8.118-19.738-13.733-31.239-19.762-4.25-2.228-8.591-4.502-12.931-6.954z"/><path d="m96.007 97.907c-.771 3.166-1.572 6.469-2.282 9.888 12.086 1.253 24.04-.491 36.889-2.374 4.749-.696 9.598-1.406 14.55-1.975 2.07-4.534 4.245-8.926 6.374-13.228 5.761-11.637 11.113-22.468 13.657-34.35-3.471-.381-6.86-.64-10.109-.885-17.968-1.356-28.565-2.717-37.423-14.909l-24.271 17.634c8.858 12.192 6.877 22.691 2.615 40.199z"/><path d="m415.993 414.093c.771-3.166 1.572-6.469 2.282-9.887-12.087-1.253-24.041.491-36.89 2.374-4.748.696-9.597 1.407-14.548 1.975-2.07 4.533-4.244 8.925-6.373 13.225-5.761 11.638-11.114 22.469-13.657 34.351 3.47.381 6.859.64 10.108.885 17.968 1.356 28.565 2.717 37.423 14.909l24.271-17.634c-8.859-12.191-6.878-22.69-2.616-40.198z"/><path d="m33.638 222.142c1.237 3.014 2.53 6.157 3.965 9.34 10.515-6.091 19.161-14.528 28.449-23.604 3.432-3.354 6.937-6.779 10.609-10.148-.99-4.884-1.813-9.715-2.618-14.446-2.18-12.802-4.215-24.71-9.142-35.818-3.031 1.732-5.925 3.514-8.697 5.226-15.333 9.463-24.706 14.591-39.04 9.935l-9.271 28.531c14.333 4.656 18.902 14.314 25.745 30.984z"/><path d="m478.362 289.858c-1.237-3.014-2.531-6.158-3.966-9.341-10.515 6.09-19.16 14.528-28.448 23.603-3.433 3.354-6.938 6.779-10.611 10.15.99 4.885 1.813 9.716 2.618 14.448 2.179 12.8 4.214 24.707 9.14 35.814 3.031-1.731 5.928-3.513 8.7-5.224 15.333-9.464 24.707-14.591 39.04-9.935l9.271-28.531c-14.332-4.656-18.901-14.314-25.744-30.984z"/><path d="m37.603 280.517c-1.435 3.183-2.728 6.326-3.966 9.341-6.842 16.67-11.412 26.328-25.744 30.985l9.271 28.531c14.333-4.657 23.707.471 39.04 9.935 2.772 1.711 5.669 3.493 8.7 5.224 4.926-11.107 6.961-23.014 9.14-35.814.806-4.732 1.628-9.563 2.618-14.448-3.672-3.371-7.178-6.795-10.611-10.15-9.287-9.076-17.933-17.513-28.448-23.604z"/><path d="m474.397 231.482c1.435-3.183 2.728-6.326 3.965-9.34 6.842-16.67 11.412-26.328 25.744-30.985l-9.271-28.531c-14.333 4.657-23.706-.471-39.04-9.935-2.772-1.711-5.666-3.494-8.697-5.225-4.927 11.108-6.962 23.016-9.142 35.817-.806 4.731-1.628 9.562-2.618 14.447 3.672 3.37 7.177 6.795 10.609 10.148 9.289 9.076 17.935 17.513 28.45 23.604z"/><path d="m145.163 408.555c-4.951-.568-9.8-1.278-14.548-1.975-12.849-1.883-24.803-3.627-36.89-2.374.71 3.418 1.511 6.721 2.282 9.887 4.262 17.507 6.243 28.007-2.615 40.198l24.271 17.634c8.858-12.192 19.455-13.553 37.423-14.909 3.249-.245 6.638-.504 10.108-.885-2.543-11.882-7.896-22.713-13.658-34.351-2.129-4.301-4.303-8.692-6.373-13.225z"/><path d="m366.837 103.446c4.952.568 9.801 1.279 14.55 1.975 12.848 1.883 24.803 3.627 36.889 2.375-.71-3.419-1.512-6.722-2.282-9.889-4.262-17.507-6.243-28.007 2.615-40.198l-24.271-17.634c-8.858 12.192-19.455 13.553-37.423 14.909-3.249.245-6.638.504-10.109.885 2.543 11.882 7.896 22.713 13.657 34.35 2.129 4.301 4.304 8.693 6.374 13.227z"/><path d="m271.59 93.1c2.142 14.039 9.937 22.022 20.133 32.455 1.622 1.66 3.295 3.379 4.979 5.163 2.416-.455 4.779-.857 7.072-1.248 14.381-2.448 25.379-4.324 35.364-14.423-1.749-3.787-3.615-7.589-5.561-11.52-5.818-11.754-12.002-24.247-15.508-38.557-11.249 9.519-23.592 15.988-35.21 22.078-3.885 2.037-7.629 4.016-11.269 6.052z"/><path d="m240.409 418.9c-2.142-14.04-9.937-22.022-20.132-32.456-1.622-1.66-3.295-3.379-4.978-5.163-2.416.455-4.778.857-7.071 1.248-14.381 2.448-25.38 4.325-35.365 14.424 1.748 3.786 3.614 7.587 5.559 11.517 5.819 11.755 12.003 24.245 15.508 38.558 11.249-9.519 23.593-15.988 35.21-22.078 3.885-2.035 7.629-4.014 11.269-6.05z"/><path d="m215.299 130.718c1.683-1.784 3.356-3.503 4.978-5.163 10.195-10.434 17.991-18.416 20.133-32.456-3.64-2.035-7.384-4.014-11.268-6.05-11.618-6.09-23.961-12.56-35.21-22.078-3.506 14.31-9.69 26.803-15.508 38.557-1.946 3.931-3.812 7.732-5.56 11.519 9.985 10.099 20.984 11.975 35.365 14.424 2.291.39 4.654.793 7.07 1.247z"/><path d="m296.701 381.282c-1.684 1.784-3.356 3.503-4.979 5.163-10.195 10.433-17.991 18.416-20.133 32.455 3.641 2.035 7.385 4.014 11.27 6.051 11.618 6.09 23.961 12.56 35.21 22.078 3.505-14.313 9.689-26.803 15.508-38.559 1.946-3.93 3.811-7.731 5.56-11.517-9.985-10.099-20.984-11.975-35.364-14.423-2.292-.391-4.656-.793-7.072-1.248z"/><path d="m134.963 135.104c-12.977 1.902-26.771 3.923-41.462 2.834 5.577 13.64 7.915 27.378 10.117 40.31.736 4.323 1.461 8.495 2.272 12.586 14.014 2.301 24.015-2.646 37.088-9.118 2.08-1.03 4.232-2.089 6.449-3.139.314-2.438.661-4.81.999-7.112 2.116-14.434 3.73-25.474-2.789-38.09-4.141.493-8.334 1.093-12.674 1.729z"/><path d="m377.036 376.897c12.977-1.902 26.771-3.922 41.463-2.834-5.575-13.638-7.916-27.379-10.117-40.309-.736-4.324-1.461-8.496-2.272-12.587-14.015-2.302-24.016 2.646-37.089 9.118-2.083 1.031-4.229 2.094-6.449 3.145-.314 2.436-.661 4.805-.998 7.105-2.115 14.434-3.73 25.474 2.79 38.092 4.141-.494 8.333-1.094 12.672-1.73z"/><path d="m120.9 262.335c1.079-2.058 2.191-4.18 3.369-6.335-1.178-2.155-2.29-4.276-3.369-6.334-6.773-12.921-11.956-22.802-24.646-29.177-3.06 2.833-6.099 5.781-9.235 8.846-9.382 9.167-19.35 18.908-31.878 26.665 12.526 7.756 22.497 17.498 31.877 26.664 3.137 3.065 6.177 6.015 9.237 8.848 12.69-6.376 17.873-16.257 24.645-29.177z"/><path d="m424.981 229.335c-3.137-3.065-6.176-6.014-9.237-8.848-12.69 6.376-17.873 16.257-24.646 29.177-1.079 2.059-2.191 4.18-3.369 6.336 1.178 2.156 2.29 4.277 3.369 6.336 6.772 12.92 11.955 22.801 24.645 29.177 3.061-2.834 6.101-5.783 9.238-8.849 9.38-9.167 19.351-18.908 31.877-26.664-12.527-7.757-22.494-17.497-31.877-26.665z"/><path d="m142.978 330.284c-13.073-6.472-23.074-11.419-37.088-9.118-.811 4.091-1.536 8.264-2.272 12.588-2.202 12.931-4.54 26.67-10.117 40.309 14.696-1.088 28.484.932 41.463 2.834 4.339.636 8.531 1.236 12.673 1.729 6.519-12.617 4.905-23.657 2.789-38.091-.337-2.3-.684-4.669-.998-7.105-2.22-1.052-4.367-2.115-6.45-3.146z"/><path d="m377.037 135.104c-4.339-.636-8.531-1.236-12.673-1.729-6.519 12.617-4.905 23.657-2.79 38.091.337 2.299.684 4.669.998 7.105 2.22 1.051 4.366 2.113 6.449 3.145 13.074 6.472 23.074 11.42 37.089 9.118.811-4.091 1.536-8.263 2.272-12.586 2.201-12.929 4.542-26.671 10.117-40.309-14.69 1.089-28.483-.933-41.462-2.835z"/><path d="m375.366 294.785c-2.961-4.198-5.441-8.463-7.69-12.599-2.877 2.471-6.073 4.812-9.664 6.96 1.643 3.849 2.853 7.621 3.728 11.312 4.251-2.024 8.765-4.017 13.626-5.673z"/><path d="m256 381.509c3.078-4.113 6.368-7.79 9.606-11.207-3.239-1.973-6.453-4.289-9.605-7.041-3.153 2.752-6.367 5.068-9.606 7.041 3.237 3.418 6.527 7.094 9.605 11.207z"/><path d="m330.957 169.174c-.611-4.668-1.112-9.576-1.184-14.712-4.911 1.519-9.736 2.56-14.367 3.421 1.462 3.502 2.707 7.259 3.641 11.34 4.168-.372 8.129-.357 11.91-.049z"/><path d="m192.953 169.224c.934-4.082 2.179-7.839 3.641-11.342-4.631-.861-9.456-1.902-14.366-3.421-.073 5.14-.574 10.052-1.186 14.723 3.783-.309 7.741-.333 11.911.04z"/><path d="m144.323 282.186c-2.249 4.136-4.729 8.401-7.69 12.599 4.863 1.656 9.376 3.649 13.627 5.673.875-3.691 2.085-7.462 3.728-11.312-3.591-2.148-6.787-4.489-9.665-6.96z"/><path d="m180.109 336.185c.964 6.574 2.011 13.719 2.119 21.354 7.295-2.257 14.415-3.468 20.964-4.583 6.243-1.063 11.847-2.02 17.01-3.586-16.538-6.362-30.97-16.996-41.941-30.545.1 5.416.925 11.065 1.848 17.36z"/><path d="m364.528 235.737c3.084-5.885 6.437-12.281 10.837-18.521-7.229-2.462-13.7-5.667-19.655-8.615-5.694-2.819-10.804-5.346-15.917-7.114 9.354 14.329 15.139 31.19 16.072 49.314 3.084-4.425 5.724-9.457 8.663-15.064z"/><path d="m136.634 217.216c4.401 6.241 7.753 12.637 10.838 18.521 2.939 5.607 5.58 10.639 8.663 15.063.933-18.124 6.718-34.985 16.072-49.314-5.113 1.768-10.224 4.296-15.918 7.115-5.954 2.948-12.428 6.153-19.655 8.615z"/><path d="m281.912 159.411c-3.254-4.298-7.223-8.363-11.646-12.889-4.644-4.752-9.69-9.917-14.266-16.031-4.575 6.114-9.623 11.279-14.266 16.031-4.423 4.526-8.391 8.591-11.646 12.889 8.268-2.22 16.953-3.411 25.912-3.411s17.644 1.191 25.912 3.411z"/><path d="m329.772 357.539c.108-7.636 1.155-14.781 2.119-21.354.923-6.295 1.749-11.944 1.848-17.36-10.971 13.549-25.403 24.183-41.941 30.545 5.162 1.566 10.767 2.523 17.01 3.585 6.55 1.115 13.669 2.327 20.964 4.584z"/><circle cx="256" cy="256" r="70"/></g></svg>