<?xml version="1.0" encoding="iso-8859-1"?>
<!-- Generator: Adobe Illustrator 21.0.0, SVG Export Plug-In . SVG Version: 6.00 Build 0)  -->
<svg version="1.1" id="Capa_1" xmlns="http://www.w3.org/2000/svg" xmlns:xlink="http://www.w3.org/1999/xlink" x="0px" y="0px"
	 viewBox="0 0 511.927 511.927" style="enable-background:new 0 0 511.927 511.927;" xml:space="preserve">
<g>
	<g>
		<g>
			<path d="M421.33,511.927h35.749c5.049,0,9.143-4.093,9.143-9.143v-35.749C443.25,470.961,425.256,488.955,421.33,511.927z"/>
			<path d="M347.365,295.607c-0.068-1.661-1.419-2.98-3.081-3.008l-19.886-0.101c-1.994-0.135-3.956,0.552-5.431,1.902
				l-28.663,33.152c-2.26,2.609-5.796,3.723-9.143,2.88l-91.794-11.95l60.343,40.567c2.229,1.482,3.697,3.867,4.015,6.526
				c0.318,2.658-0.544,5.322-2.36,7.289l-28.151,30.263c-1.787,1.95-4.342,3.013-6.985,2.907l-40.411-1.28
				c-1.499-0.119-1.829,0-2.048,0.677c-0.29,0.805,0.067,1.7,0.832,2.085l17.335,11.246c4.039,2.623,5.351,7.93,2.999,12.133
				l-11.666,20.846c-0.218,0.427-0.325,0.902-0.311,1.381c-0.003,0.806,0.328,1.577,0.914,2.13c0.944,0.952,2.401,1.171,3.584,0.539
				l20.416-11.072c4.218-2.289,9.487-0.928,12.069,3.118l11.383,17.828c0.45,0.507,1.174,0.669,1.797,0.401
				c0.623-0.268,1.004-0.905,0.945-1.58l-0.768-41.536c-0.046-2.61,1.025-5.115,2.944-6.885l30.409-28.078
				c1.956-1.807,4.602-2.671,7.247-2.367c2.645,0.304,5.027,1.746,6.522,3.949l40.978,60.343l-12.014-91.429
				c-0.221-0.816-0.319-1.66-0.293-2.505c0.031-2.597,1.157-5.06,3.099-6.784l33.829-28.891c1.004-1.376,1.481-3.066,1.344-4.763
				V295.607z"/>
			<path d="M45.65,246.784v35.749c22.972-3.926,40.965-21.92,44.891-44.891H54.793C49.744,237.641,45.65,241.735,45.65,246.784z"/>
			<path d="M45.65,467.035v35.749c0,5.049,4.093,9.143,9.143,9.143h35.749C86.616,488.955,68.622,470.961,45.65,467.035z"/>
			<path d="M457.079,237.641H421.33c3.926,22.972,21.92,40.965,44.891,44.891v-35.749
				C466.222,241.735,462.128,237.641,457.079,237.641z"/>
			<path d="M402.853,237.641h-73.774v-45.714c0-15.148-12.28-27.429-27.429-27.429h-91.429c-15.148,0-27.429,12.28-27.429,27.429
				v45.714h-73.774c-4.219,33.093-30.276,59.15-63.369,63.369v147.547c33.093,4.219,59.15,30.276,63.369,63.369h293.833
				c4.219-33.093,30.276-59.15,63.369-63.369V301.01C433.128,296.791,407.072,270.735,402.853,237.641z M201.079,191.927
				c0-5.049,4.093-9.143,9.143-9.143h91.429c5.049,0,9.143,4.093,9.143,9.143v45.714H201.079V191.927z M358.336,333.723
				l-30.391,26.011l13.083,99.511c0.073,0.567,0.092,1.139,0.055,1.71c-0.46,7.242-5.626,13.319-12.699,14.939
				c-6.408,1.592-13.085-1.323-16.274-7.104l-40.878-60.178l-19.602,18.103l0.677,36.846c0.626,8.845-4.818,16.99-13.23,19.794
				c-2.159,0.762-4.431,1.155-6.72,1.161c-6.584-0.015-12.722-3.328-16.347-8.823l-6.93-10.834l-12.91,6.994
				c-8.297,4.463-18.537,2.979-25.225-3.657c-6.713-6.698-8.202-17.021-3.657-25.344l7.515-13.422l-10.295-6.665
				c-7.848-5.035-11.144-14.846-7.927-23.598c3.014-8.502,11.539-13.759,20.489-12.635l35.575,1.097l17.993-19.374l-61.111-41.143
				c-5.403-3.281-8.006-9.722-6.4-15.835c1.657-7.09,7.822-12.217,15.095-12.553c0.528-0.029,1.058-0.008,1.582,0.064l99.904,13.019
				l25.856-29.861c5.003-5.116,11.91-7.919,19.063-7.735l19.703,0.101c11.644,0.077,21.103,9.423,21.321,21.065v0.137v19.84
				C365.835,322.222,363.19,328.863,358.336,333.723z"/>
			<path d="M255.936,100.498c37.76,0,69.723,8.677,89.28,22.373C339.154,79.278,319.616,6.546,256.219,0
				c-63.15,6.519-82.807,78.811-88.933,122.45C186.898,109.001,218.569,100.498,255.936,100.498z"/>
			<path d="M363.95,123.63c21.55-16.079,47.979-24.248,74.843-23.131c22.211-0.496,44.177,4.724,63.79,15.159
				C476.928,61.458,401.042,17.143,310.949,4.005C347.145,34.578,359.653,88.978,363.95,123.63z"/>
			<path d="M73.079,100.498c27.098-1.171,53.755,7.16,75.365,23.552c4.251-34.624,16.704-89.289,53.029-119.991
				C111.122,17.298,35.081,61.513,9.344,115.63C28.944,105.214,50.889,100.004,73.079,100.498z"/>
		</g>
	</g>
</g>
<g>
</g>
<g>
</g>
<g>
</g>
<g>
</g>
<g>
</g>
<g>
</g>
<g>
</g>
<g>
</g>
<g>
</g>
<g>
</g>
<g>
</g>
<g>
</g>
<g>
</g>
<g>
</g>
<g>
</g>
</svg>
