<svg height="512pt" viewBox="0 0 512 512" width="512pt" xmlns="http://www.w3.org/2000/svg"><path d="m0 90c0 17.488281 5.023438 34.4375 14.515625 49.027344l63.917969 96.664062c2.765625 4.25 7.5 6.8125 12.566406 6.8125s9.800781-2.5625 12.566406-6.8125l62.917969-96.664062c9.492187-14.574219 14.515625-31.539063 14.515625-49.027344 0-49.628906-40.371094-90-90-90s-91 40.371094-91 90zm136 0c0 24.8125-20.1875 45-45 45s-45-20.1875-45-45 20.1875-45 45-45 45 20.1875 45 45zm0 0"/><path d="m76 90c0 8.277344 6.722656 15 15 15s15-6.722656 15-15-6.722656-15-15-15-15 6.722656-15 15zm0 0"/><path d="m130.824219 478.910156 58.203125-79.609375c6.160156-8.21875 2.445312-20-7.265625-23.246093l-13.226563-4.394532c-28.152344-9.394531-39.707031-42.902344-23.234375-67.660156l38.21875-57.320312c2.785157-4.175782 7.472657-6.679688 12.480469-6.679688 8.277344 0 15-6.722656 15-15v-41.453125c0-5.730469-3.179688-10.871094-8.289062-13.417969l-15.597657-7.800781-58.410156 89.726563c-8.332031 12.816406-22.4375 20.449218-37.703125 20.449218s-29.371094-7.632812-37.703125-20.433594l-43.710937-65.628906c-6.195313 22.199219-9.585938 45.105469-9.585938 68.558594 0 95.113281 53.433594 180.082031 130.824219 223.910156zm0 0"/><path d="m256 0c-3.003906 0-5.910156.558594-8.894531.664062l73.128906 58.5c5.066406 4.074219 9.257813 9.257813 12.144531 15.03125l18.75 37.515626c2.546875 5.109374 7.6875 8.289062 13.417969 8.289062h11.453125c24.8125 0 45 20.1875 45 45s-20.1875 45-45 45c-8.277344 0-15 6.722656-15 15v17.578125c0 3.941406 1.597656 7.808594 4.394531 10.605469l30 30c17.550781 17.546875 17.550781 46.082031 0 63.632812l-80.390625 80.390625c-5.242187 5.242188-5.84375 14.667969-1.390625 20.601563l34.320313 46.773437c95.257812-36.996093 164.066406-131.410156 164.066406-239.582031 0-140.609375-115.390625-255-256-255zm0 0"/><path d="m376 180c8.277344 0 15-6.722656 15-15s-6.722656-15-15-15h-11.453125c-17.15625 0-32.578125-9.535156-40.257813-24.871094l-18.761718-37.53125c-.953125-1.933594-2.359375-3.648437-4.042969-5.007812l-96.128906-76.894532c-8.214844 1.667969-16.484375 3.125-24.5 5.601563 18.523437 21.125 30.144531 48.464844 30.144531 78.703125 0 15.960938-3.363281 31.507812-9.40625 46.023438l14.535156 7.265624c15.335938 7.679688 24.871094 23.101563 24.871094 40.257813v41.453125c0 21.886719-15.703125 40.164062-36.429688 44.179688l-34.308593 51.460937c-5.488281 8.265625-1.625 19.433594 7.75 22.558594l13.242187 4.394531c29.21875 9.761719 40.214844 45.144531 21.765625 69.710938l-54.839843 75.121093c30.144531 12.566407 63.171874 19.574219 97.820312 19.574219 21.28125 0 41.851562-2.90625 61.628906-7.84375l-28.011718-37.347656c-13.359376-17.78125-11.570313-45.066406 4.175781-60.8125l80.390625-80.390625c5.84375-5.84375 5.84375-15.367188 0-21.210938l-30-30c-8.496094-8.496093-13.183594-19.804687-13.183594-31.816406v-17.578125c0-24.8125 20.1875-45 45-45zm0 0"/></svg>