<svg id="Layer_1" enable-background="new 0 0 512 512" height="512" viewBox="0 0 512 512" width="512" xmlns="http://www.w3.org/2000/svg"><g style="fill: white"><path  d="m304.2 128.533h65.333v72.498c11.159 4.247 21.33 10.576 30 18.573v-91.071h65.333c8.284 0 15-6.716 15-15v-98.533c0-8.284-6.716-15-15-15h-160.666c-8.284 0-15 6.716-15 15v98.533c0 8.284 6.716 15 15 15z"/><ellipse cx="95.334" cy="368.467" rx="63.2" ry="63.2" transform="matrix(.973 -.23 .23 .973 -82.106 31.76)"/><ellipse cx="416.667" cy="368.467" rx="63.2" ry="63.2" transform="matrix(.707 -.707 .707 .707 -138.507 402.549)"/><path d="m336.333 321.266c13.279-22.513 35.745-38.986 62.206-44.224-5.26-29.576-31.142-52.109-62.205-52.109s-56.946 22.534-62.206 52.109c26.461 5.238 48.927 21.711 62.205 44.224z"/><path d="m15 160.667h97.467v58.938c8.67-7.997 18.841-14.326 30-18.573v-40.365h97.466c8.284 0 15-6.716 15-15v-98.534c0-8.284-6.716-15-15-15h-224.933c-8.284 0-15 6.716-15 15v98.533c0 8.285 6.716 15.001 15 15.001z"/><path d="m175.667 224.933c-31.063 0-56.945 22.534-62.206 52.109 26.461 5.238 48.927 21.711 62.206 44.224 13.279-22.513 35.744-38.986 62.205-44.224-5.26-29.575-31.142-52.109-62.205-52.109z"/><path d="m95.334 461.667c-27.266 0-51.835-11.77-68.893-30.496-16.371 17.126-26.441 40.323-26.441 65.829 0 8.284 6.716 15 15 15h118.247c-1.665-4.695-2.58-9.742-2.58-15 0-16.453 3.211-32.164 9.001-46.57-13.192 7.164-28.296 11.237-44.334 11.237z"/><path d="m256 461.667c-27.266 0-51.835-11.77-68.893-30.496-16.371 17.126-26.44 40.323-26.44 65.829 0 8.284 6.716 15 15 15h160.667c8.284 0 15-6.716 15-15 0-25.506-10.069-48.703-26.44-65.829-17.059 18.725-41.627 30.496-68.894 30.496z"/><path d="m485.56 431.171c-17.058 18.725-41.627 30.496-68.893 30.496-16.038 0-31.143-4.073-44.335-11.237 5.791 14.407 9.001 30.117 9.001 46.57 0 5.258-.915 10.305-2.58 15h118.247c8.284 0 15-6.716 15-15 0-25.506-10.069-48.703-26.44-65.829z"/><ellipse cx="256" cy="368.467" rx="63.2" ry="63.2" transform="matrix(.707 -.707 .707 .707 -185.565 288.941)"/></g></svg>